<svg width="1000" height="1000" viewPort="0 0 1000 1000" version="1.1"
     xmlns="http://www.w3.org/2000/svg">
  <rect x="0" y="0" width="10" height="65.59295828447804" />
  <rect x="10" y="0" width="10" height="92.52294579238654" />
  <rect x="20" y="0" width="10" height="98.70525267065678" />
  <rect x="30" y="0" width="10" height="79.47469036005367" />
  <rect x="40" y="0" width="10" height="63.836462270861006" />
  <rect x="50" y="0" width="10" height="93.10878454373909" />
  <rect x="60" y="0" width="10" height="71.07420912073201" />
  <rect x="70" y="0" width="10" height="80.5561956313185" />
  <rect x="80" y="0" width="10" height="86.42018118945708" />
  <rect x="90" y="0" width="10" height="67.68856795140377" />
  <rect x="100" y="0" width="10" height="68.8131047726661" />
  <rect x="110" y="0" width="10" height="82.5725204632865" />
  <rect x="120" y="0" width="10" height="90.08652279252506" />
  <rect x="130" y="0" width="10" height="98.28243898027932" />
  <rect x="140" y="0" width="10" height="98.39618302350513" />
  <rect x="150" y="0" width="10" height="70.17384491828582" />
  <rect x="160" y="0" width="10" height="99.69823094800057" />
  <rect x="170" y="0" width="10" height="89.336829313816" />
  <rect x="180" y="0" width="10" height="65.34624951344686" />
  <rect x="190" y="0" width="10" height="80.32520611953935" />
  <rect x="200" y="0" width="10" height="55.38427051659226" />
  <rect x="210" y="0" width="10" height="80.51736418145742" />
  <rect x="220" y="0" width="10" height="85.83248433964462" />
  <rect x="230" y="0" width="10" height="95.65090425036567" />
  <rect x="240" y="0" width="10" height="83.31628204630417" />
  <rect x="250" y="0" width="10" height="99.26719581205901" />
  <rect x="260" y="0" width="10" height="80.93176378984472" />
  <rect x="270" y="0" width="10" height="86.28578904406145" />
  <rect x="280" y="0" width="10" height="78.71784343788909" />
  <rect x="290" y="0" width="10" height="87.33814353569394" />
</svg>
