<svg width="600" height="300" viewPort="0 0 600 100" version="1.1"
     xmlns="http://www.w3.org/2000/svg">
  <rect x="0" y="0" width="20" height="60.097212227400945" />
  <rect x="20" y="0" width="20" height="52.8031152279786" />
  <rect x="40" y="0" width="20" height="94.98012717187036" />
  <rect x="60" y="0" width="20" height="97.78658068271966" />
  <rect x="80" y="0" width="20" height="86.8465435323181" />
  <rect x="100" y="0" width="20" height="68.40202427107852" />
  <rect x="120" y="0" width="20" height="67.02077277324632" />
  <rect x="140" y="0" width="20" height="86.06466491229807" />
  <rect x="160" y="0" width="20" height="98.19010699630277" />
  <rect x="180" y="0" width="20" height="78.61711202337477" />
  <rect x="200" y="0" width="20" height="83.4910753745767" />
  <rect x="220" y="0" width="20" height="86.20259520832289" />
  <rect x="240" y="0" width="20" height="61.25139680612284" />
  <rect x="260" y="0" width="20" height="93.91058008590733" />
  <rect x="280" y="0" width="20" height="56.50563991151516" />
  <rect x="300" y="0" width="20" height="64.8555157635993" />
  <rect x="320" y="0" width="20" height="85.21181587436692" />
  <rect x="340" y="0" width="20" height="58.505503827426196" />
  <rect x="360" y="0" width="20" height="94.44260389153854" />
  <rect x="380" y="0" width="20" height="72.46095697741029" />
  <rect x="400" y="0" width="20" height="76.06530208133611" />
  <rect x="420" y="0" width="20" height="87.40675687759551" />
  <rect x="440" y="0" width="20" height="59.984088128007684" />
  <rect x="460" y="0" width="20" height="83.14983428306758" />
  <rect x="480" y="0" width="20" height="73.69168407019932" />
  <rect x="500" y="0" width="20" height="53.67125121727795" />
  <rect x="520" y="0" width="20" height="90.24690205373844" />
  <rect x="540" y="0" width="20" height="68.47274524358753" />
  <rect x="560" y="0" width="20" height="79.22686927356871" />
  <rect x="580" y="0" width="20" height="87.80885026450386" />

  <text x="0" y="70" fill="black" text-anchor="center">60</text>
  <text x="20" y="62" fill="black" text-anchor="center">52</text>
  <text x="40" y="104" fill="black" text-anchor="center">94</text>
  <text x="60" y="107" fill="black" text-anchor="center">97</text>
  <text x="80" y="96" fill="black" text-anchor="center">86</text>
  <text x="100" y="78" fill="black" text-anchor="center">68</text>
  <text x="120" y="77" fill="black" text-anchor="center">67</text>
  <text x="140" y="96" fill="black" text-anchor="center">86</text>
  <text x="160" y="108" fill="black" text-anchor="center">98</text>
  <text x="180" y="88" fill="black" text-anchor="center">78</text>
  <text x="200" y="93" fill="black" text-anchor="center">83</text>
  <text x="220" y="96" fill="black" text-anchor="center">86</text>
  <text x="240" y="71" fill="black" text-anchor="center">61</text>
  <text x="260" y="103" fill="black" text-anchor="center">93</text>
  <text x="280" y="66" fill="black" text-anchor="center">56</text>
  <text x="300" y="74" fill="black" text-anchor="center">64</text>
  <text x="320" y="95" fill="black" text-anchor="center">85</text>
  <text x="340" y="68" fill="black" text-anchor="center">58</text>
  <text x="360" y="104" fill="black" text-anchor="center">94</text>
  <text x="380" y="82" fill="black" text-anchor="center">72</text>
  <text x="400" y="86" fill="black" text-anchor="center">76</text>
  <text x="420" y="97" fill="black" text-anchor="center">87</text>
  <text x="440" y="69" fill="black" text-anchor="center">59</text>
  <text x="460" y="93" fill="black" text-anchor="center">83</text>
  <text x="480" y="83" fill="black" text-anchor="center">73</text>
  <text x="500" y="63" fill="black" text-anchor="center">53</text>
  <text x="520" y="100" fill="black" text-anchor="center">90</text>
  <text x="540" y="78" fill="black" text-anchor="center">68</text>
  <text x="560" y="89" fill="black" text-anchor="center">79</text>
  <text x="580" y="97" fill="black" text-anchor="center">87</text>
</svg>
