<!-- we speed up time 10x so we can actually see stuff happen -->

<svg xmlns="http://www.w3.org/2000/svg" xmlns:xlink="http://www.w3.org/1999/xlink" width="360px" height="360px" viewBox="0 0 360 360">
  <!-- seconds hand -->
  <rect x="180" y="180" height="160" width="1" fill="red">
    <animateTransform attributeName="transform" type="rotate"
      from="0 180 180"
      to="360 180 180"
      dur="1s" repeatCount="indefinite" />
  </rect>
  <!-- minute hand -->
  <rect x="177.5" y="20" height="160" width="5">
    <animateTransform attributeName="transform" type="rotate"
      from="0 180 180"
      to="360 180 180"
      dur="60s" repeatCount="indefinite" />
  </rect>
  <!-- hour hand -->
  <rect x="175" y="90" height="90" width="10">
    <animateTransform attributeName="transform" type="rotate"
      from="0 180 180"
      to="270 180 180"
      dur="720s" repeatCount="indefinite" />
  </rect>
  <!-- hide the center abberation -->
  <circle cx="180" cy="180" r="10" />
  <circle cx="180" cy="180" r="180" fill="none" stroke="black"/>

  <!-- Numbers -->
  <text x="175" y="20" font-size="20">12</text>
  <text x="175" y="20" font-size="20" transform="rotate(30 180 180)">1</text>
  <text x="175" y="20" font-size="20" transform="rotate(60 180 180)">2</text>
  <text x="175" y="20" font-size="20" transform="rotate(90 180 180)">3</text>
  <text x="175" y="20" font-size="20" transform="rotate(120 180 180)">4</text>
  <text x="175" y="20" font-size="20" transform="rotate(150 180 180)">5</text>
  <text x="175" y="20" font-size="20" transform="rotate(180 180 180)">6</text>
  <text x="175" y="20" font-size="20" transform="rotate(210 180 180)">7</text>
  <text x="175" y="20" font-size="20" transform="rotate(240 180 180)">8</text>
  <text x="175" y="20" font-size="20" transform="rotate(270 180 180)">9</text>
  <text x="175" y="20" font-size="20" transform="rotate(300 180 180)">10</text>
  <text x="175" y="20" font-size="20" transform="rotate(330 180 180)">11</text>
</svg>
