<!-- we speed up time 10x so we can actually see stuff happen -->

<svg xmlns="http://www.w3.org/2000/svg" xmlns:xlink="http://www.w3.org/1999/xlink" width="500px" height="500px" viewBox="0 0 500 500">
  <!-- seconds hand -->
  <rect x="250" y="250" height="160" width="1" fill="red">
    <animateTransform attributeName="transform" type="rotate"
      from="0 250 250"
      to="360 250 250"
      dur="1s" repeatCount="indefinite" />
  </rect>
  <!-- minute hand -->
  <rect x="247.5" y="90" height="160" width="5">
    <animateTransform attributeName="transform" type="rotate"
      from="0 250 250"
      to="360 250 250"
      dur="60s" repeatCount="indefinite" />
  </rect>
  <!-- hour hand -->
  <rect x="245" y="160" height="90" width="10">
    <animateTransform attributeName="transform" type="rotate"
      from="0 250 250"
      to="270 250 250"
      dur="720s" repeatCount="indefinite" />
  </rect>
  <!-- hide the center abberation -->
  <circle cx="250" cy="250" r="10" />
  <circle cx="250" cy="250" r="180" fill="none" stroke="black"/>

  <!-- Numbers -->
  <text x="245" y="90" font-size="20">12</text>
  <text x="245" y="90" font-size="20" transform="rotate(30 250 250)">1</text>
  <text x="245" y="90" font-size="20" transform="rotate(60 250 250)">2</text>
  <text x="245" y="90" font-size="20" transform="rotate(90 250 250)">3</text>
  <text x="245" y="90" font-size="20" transform="rotate(120 250 250)">4</text>
  <text x="245" y="90" font-size="20" transform="rotate(150 250 250)">5</text>
  <text x="245" y="90" font-size="20" transform="rotate(180 250 250)">6</text>
  <text x="245" y="90" font-size="20" transform="rotate(210 250 250)">7</text>
  <text x="245" y="90" font-size="20" transform="rotate(240 250 250)">8</text>
  <text x="245" y="90" font-size="20" transform="rotate(270 250 250)">9</text>
  <text x="245" y="90" font-size="20" transform="rotate(300 250 250)">10</text>
  <text x="245" y="90" font-size="20" transform="rotate(330 250 250)">11</text>
</svg>
