<svg xmlns="http://www.w3.org/2000/svg" xmlns:xlink="http://www.w3.org/1999/xlink" width="1000px" height="1000px" viewBox="0 0 1000 1000">
  <defs>
    <g id="blade">
      <path
        d="
        M 470 500
        C 470 500 480 370 500 350
        C 520 330 700 300 700 500
        C 680 600 500 330 530 500
        "
        fill="none"
        stroke-width="2"
        stroke="black"
        />
      <text
        x="540" y="400"
        style="font-size:25px"
        transform="rotate(15 540 400)">asuh dude</text>
    </g>
    <path id="spine"
      d="M 500 500 500 270"
      fill="none"
      stroke-width="2"
      stroke="grey"
      />
  </defs>
  <g>
    <animateTransform
      attributeName="transform"
      attributeType="XML"
      type="rotate"
      from="120 500 500"
      to="0 500 500"
      dur="1s"
      repeatCount="indefinite"/>
    <use href="#blade" transform="rotate(0 500 500)"/>
    <use href="#blade" transform="rotate(120 500 500)"/>
    <use href="#blade" transform="rotate(240 500 500)"/>
  </g>

  <!--
    [...Array(36).keys()].map(i => `<use href="#spine" transform="rotate(${i * 10} 500 500)"/>`).map(i => console.log(i))
  -->
  <use href="#spine" transform="rotate(0 500 500)"/>
  <use href="#spine" transform="rotate(10 500 500)"/>
  <use href="#spine" transform="rotate(20 500 500)"/>
  <use href="#spine" transform="rotate(30 500 500)"/>
  <use href="#spine" transform="rotate(40 500 500)"/>
  <use href="#spine" transform="rotate(50 500 500)"/>
  <use href="#spine" transform="rotate(60 500 500)"/>
  <use href="#spine" transform="rotate(70 500 500)"/>
  <use href="#spine" transform="rotate(80 500 500)"/>
  <use href="#spine" transform="rotate(90 500 500)"/>
  <use href="#spine" transform="rotate(100 500 500)"/>
  <use href="#spine" transform="rotate(110 500 500)"/>
  <use href="#spine" transform="rotate(120 500 500)"/>
  <use href="#spine" transform="rotate(130 500 500)"/>
  <use href="#spine" transform="rotate(140 500 500)"/>
  <use href="#spine" transform="rotate(150 500 500)"/>
  <use href="#spine" transform="rotate(160 500 500)"/>
  <use href="#spine" transform="rotate(170 500 500)"/>
  <use href="#spine" transform="rotate(180 500 500)"/>
  <use href="#spine" transform="rotate(190 500 500)"/>
  <use href="#spine" transform="rotate(200 500 500)"/>
  <use href="#spine" transform="rotate(210 500 500)"/>
  <use href="#spine" transform="rotate(220 500 500)"/>
  <use href="#spine" transform="rotate(230 500 500)"/>
  <use href="#spine" transform="rotate(240 500 500)"/>
  <use href="#spine" transform="rotate(250 500 500)"/>
  <use href="#spine" transform="rotate(260 500 500)"/>
  <use href="#spine" transform="rotate(270 500 500)"/>
  <use href="#spine" transform="rotate(280 500 500)"/>
  <use href="#spine" transform="rotate(290 500 500)"/>
  <use href="#spine" transform="rotate(300 500 500)"/>
  <use href="#spine" transform="rotate(310 500 500)"/>
  <use href="#spine" transform="rotate(320 500 500)"/>
  <use href="#spine" transform="rotate(330 500 500)"/>
  <use href="#spine" transform="rotate(340 500 500)"/>
  <use href="#spine" transform="rotate(350 500 500)"/>

  <circle cx="500" cy="500" r="230" stroke="black" fill="none" stroke-width="2"/>
  <circle cx="500" cy="500" r="70" />
</svg>
