
<svg xmlns="http://www.w3.org/2000/svg" xmlns:xlink="http://www.w3.org/1999/xlink" width="500px" height="1000px" viewBox="0 0 500 1000">

  <!-- Border Outline-->
  <rect x="1" y="1" height="999" width="499" fill="none" stroke="black"/>

  <!-- https://dribbble.com/shots/2408548-Melting-icecream-Animated-with-css -->
  <!-- shadow -->

  <!-- stick -->

  <!-- ice cream -->
  <rect
    x="150"
    y="250"
    height="350"
    width="200"
    fill="rgb(253,175,168)"
    rx="15" ry="15"/>
  <ellipse
    cx="250"
    cy="270"
    rx="100"
    ry="50"
    fill="rgb(253,175,168)"
    />
  <rect
    x="185"
    y="260"
    height="250"
    width="50"
    fill="rgb(253,165,157)"
    rx="30" ry="30"/>
  <rect
    x="265"
    y="260"
    height="250"
    width="50"
    fill="rgb(253,165,157)"
    rx="30" ry="30"/>

  <!-- eyes -->
  <circle
    cx="210"
    cy="550"
    fill="rgb(239,154,147)"
    r="6"/>

  <circle
    cx="290"
    cy="550"
    fill="rgb(239,154,147)"
    r="6"/>

  <!-- Mouth -->
  <path
    fill="rgb(237,153,146)"
    d="
      M 230 565
      A 1 1 0 0 0 270 565
      z
    "/>

  <!-- tongue -->
  <defs>
    <clipPath id="cut-off-bottom">
      <path
        d="
          M 230 565
          A 1 1 0 0 0 270 565
          z
        "/>
    </clipPath>
  </defs>
  <path
    fill="rgb(254,194,185)"
    clip-path="url(#cut-off-bottom)"
    d="
      M 230 590
      A 1 1 0 0 1 270 590
      z
    "/>
  <rect x="230" y="564" width="40" height="3" fill="rgb(237,153,146)" ry="1"/>

  <path
    d="
      M 150 600

      L 150 200

      A 1 1 0 0 0 220 180

      A 1 1 0 0 0 270 175

      L 350 200

      L 350 600

      L 350 640

      A 1 1 0 0 1 330 640

      L 330 610

      A 1 1 0 0 0 310 610

      L 310 680

      A 1 1 0 0 1 290 680

      L 290 600

      L 270 600

      L 270 800

      A 1 1 0 0 1 230 800

      L 230 600
      z"
    fill="none"
    stroke-width="1"
    stroke="black"/>

</svg>
